<svg
  width="640"
  height="480"
  xmlns="http://www.w3.org/2000/svg"
  preserveAspectRatio="xMidYMid meet"
>
  <g>
    <title>Layer 1</title>
    <g id="svg_53">
      <g
        id="svg_40"
        fill="#000000"
        transform="matrix(0.0301905 0 0 -0.0301905 0 191.408)"
      >
        <path
          id="svg_41"
          d="m12187.67383,-1321.7749c99,-7 403,-76 390,-89c-4,-3 -149,-11 -323,-17l-317,-12l-163,44c-89,24 -166,45 -170,45c-4,1 9,5 28,9c28,6 21,7 -35,8c-38,0 -94,-3 -124,-6l-54,-7l167,-45c121,-32 161,-46 144,-51c-24,-7 -718,-32 -724,-26c-2,2 14,28 36,57c22,30 40,55 40,57c0,2 -35,3 -79,3l-78,0l-26,-37c-62,-93 -52,-89 -263,-97c-104,-3 -261,-9 -349,-12l-160,-6l60,61l59,61l-35,0c-32,0 -53,-17 -237,-191l-202,-192l-186,-366c-334,-656 -448,-879 -687,-1346l-236,-460l-41,-287l-41,-288l22,-30c25,-33 31,-37 28,-17c-6,30 14,147 25,147c6,0 39,-42 73,-93c33,-50 119,-177 189,-281l128,-189l-17,-66c-10,-36 -22,-68 -27,-71c-5,-3 15,-43 45,-88c53,-79 71,-99 58,-67c-3,9 0,37 7,63c26,93 25,93 97,-15c36,-54 126,-188 200,-297c74,-110 139,-209 145,-220c14,-25 18,-28 -261,188c-12,9 -12,7 -1,-14c20,-38 73,-115 82,-118c4,-2 8,-10 8,-18c0,-8 5,-14 11,-14c5,0 7,5 4,10c-12,19 3,9 91,-60c49,-39 108,-85 130,-103c28,-22 102,-122 230,-312c103,-154 181,-275 173,-269c-106,79 -282,232 -299,259c-12,20 -24,34 -27,31c-15,-15 76,-111 205,-217c81,-66 306,-251 501,-411l353,-289l322,30c176,17 481,46 676,65c195,19 553,54 795,77c347,33 443,45 457,58c26,25 1047,1488 1063,1524c16,36 106,294 379,1097c103,300 195,568 205,596l19,51l-86,148c-48,81 -305,519 -572,973l-485,826l-50,13c-28,7 -307,78 -621,158c-559,142 -573,145 -670,143l-99,-1l100,-7zm621,-141c46,-12 83,-24 80,-26c-3,-3 -100,-25 -216,-49l-211,-44l-200,55c-111,30 -204,56 -207,59c-3,4 8,7 24,7c504,24 628,23 730,-2zm-703,-71c125,-34 227,-64 227,-67c0,-4 -136,-33 -303,-67l-302,-61l-415,33c-228,18 -423,33 -432,34c-10,0 -18,4 -18,8c0,7 106,149 113,153c6,3 647,26 762,28l140,1l228,-62zm-1313,21c0,-11 -83,-116 -102,-129c-8,-6 -640,40 -647,47c-3,2 9,17 26,34l30,31l334,12c184,7 340,14 347,15c6,0 12,-4 12,-10zm2408,-49c187,-48 211,-56 201,-63c-2,-2 -101,-25 -219,-50l-215,-46l-70,20c-38,11 -104,29 -145,40c-143,38 -181,51 -176,56c3,3 99,25 213,48c115,24 209,43 211,44c2,1 92,-22 200,-49zm-2853,-91c160,-11 296,-22 303,-25c9,-2 -5,-26 -40,-68c-45,-55 -58,-65 -86,-65c-50,-1 -645,49 -651,55c-3,2 27,33 65,68c54,50 74,63 94,60c14,-2 156,-13 315,-25zm2302,-31c106,-29 193,-55 193,-59c0,-3 -53,-17 -117,-31c-115,-24 -122,-24 -273,-12c-85,7 -193,15 -240,19c-47,3 -103,8 -125,10c-22,3 -64,5 -93,6c-29,1 -55,6 -58,10c-2,4 28,15 68,23c170,38 405,84 427,85c14,1 112,-23 218,-51zm-1462,-33c187,-14 354,-29 370,-33c24,-6 -26,-19 -230,-59l-260,-52l-150,14c-82,8 -158,14 -169,15c-12,0 -16,5 -12,15c10,27 88,125 100,125c6,0 164,-11 351,-25zm2404,-125c37,-63 115,-197 174,-297c59,-100 107,-186 107,-190c0,-5 -37,-19 -82,-31c-46,-12 -140,-37 -210,-56l-127,-34l-33,56c-17,31 -88,152 -157,267c-149,248 -178,302 -169,311c4,3 24,10 45,14c101,20 243,52 288,64c88,25 90,24 164,-104zm-1449,50c162,-12 304,-25 314,-29c12,-4 -69,-26 -226,-60l-245,-53l-344,28c-189,15 -348,30 -352,34c-13,11 473,110 518,105c22,-2 173,-14 335,-25zm1005,-371c103,-171 183,-315 178,-319c-4,-4 -46,-17 -93,-29c-88,-22 -225,-59 -342,-91l-68,-19l-5,22c-2,12 -14,90 -25,172c-11,83 -31,233 -45,334c-13,101 -23,187 -20,191c3,4 40,15 82,25c43,9 83,19 88,20c6,2 22,4 37,4c25,1 41,-22 213,-310zm-2990,275c170,-14 316,-27 323,-29c8,-3 -43,-115 -159,-342c-95,-186 -175,-341 -179,-346c-7,-8 -665,55 -675,65c-4,4 297,614 332,671c6,10 13,10 358,-19zm702,-59c92,-9 168,-17 169,-18c3,-4 84,-740 82,-743c-4,-3 -792,77 -797,81c-8,9 351,695 364,695c8,0 90,-7 182,-15zm1737,-7c5,-23 86,-645 89,-682c2,-19 -18,-26 -243,-86c-47,-12 -115,-31 -151,-41c-91,-26 -95,-25 -102,19c-10,59 -87,678 -87,695c0,10 17,19 53,27c101,22 233,51 312,70c110,25 124,25 129,-2zm-974,-56l315,-27l48,-379c26,-208 45,-381 43,-383c-4,-4 -129,7 -261,23c-52,6 -321,33 -407,41c-66,6 -68,7 -73,37c-2,17 -20,173 -40,346c-19,173 -37,327 -40,343c-4,27 -4,27 48,26c28,0 194,-13 367,-27zm2440,-632c45,-77 84,-148 87,-158c3,-14 -167,-486 -181,-499c-6,-6 -407,669 -403,680c3,11 355,115 393,116c17,1 38,-27 104,-139zm-427,-337c107,-181 205,-346 217,-368c12,-22 31,-53 42,-68c11,-15 18,-36 15,-45c-4,-17 -175,-476 -224,-605c-15,-37 -30,-70 -35,-73c-5,-3 -118,55 -251,129c-283,157 -305,170 -373,208l-51,29l-18,127c-9,71 -21,157 -26,193c-4,36 -24,184 -44,330c-20,145 -35,275 -33,288c3,23 16,28 173,73c94,27 215,62 270,78c55,16 110,30 121,30c18,1 56,-58 217,-326zm-4158,257c134,-14 570,-60 573,-60c6,0 -393,-780 -399,-780c-5,0 -60,60 -357,387l-102,113l72,142c79,160 106,208 116,208c4,0 48,-5 97,-10zm1194,-125c233,-25 432,-45 442,-45c13,0 19,-11 24,-42c11,-69 13,-89 20,-158c4,-36 8,-76 10,-90c2,-14 7,-59 11,-100c4,-41 8,-77 9,-80c1,-3 5,-39 9,-80c4,-41 9,-86 11,-100c17,-113 37,-321 32,-333c-4,-12 -844,-497 -860,-497c-3,0 -92,96 -198,213c-105,116 -229,253 -274,302c-104,113 -135,151 -135,161c0,5 100,208 222,451c145,288 228,443 238,443c8,0 206,-20 439,-45zm2045,-22c6,-19 93,-660 103,-755c3,-32 3,-58 -1,-58c-18,0 -538,295 -546,309c-13,25 -53,372 -43,381c4,5 91,32 193,60c102,29 205,58 230,65c59,18 58,18 64,-2zm-1000,-88c181,-18 332,-37 336,-42c8,-9 55,-391 49,-397c-2,-1 -49,-29 -104,-60c-55,-31 -107,-61 -115,-66c-16,-10 -108,-62 -200,-113c-30,-16 -66,-37 -80,-47c-14,-9 -36,-21 -50,-28c-14,-7 -49,-26 -79,-43c-29,-16 -56,-28 -58,-25c-7,7 -103,848 -97,857c2,4 19,6 37,3c17,-3 180,-20 361,-39zm2594,-107c92,-154 139,-233 216,-365l78,-132l-52,-148c-28,-81 -67,-195 -87,-253c-19,-58 -36,-106 -38,-108c-5,-5 -355,587 -355,600c0,13 44,140 95,273c15,39 38,103 53,143c14,39 29,72 33,72c5,0 30,-37 57,-82zm-4956,-442c89,-100 172,-193 185,-207l25,-27l-166,-328c-90,-181 -171,-337 -178,-347c-13,-17 -32,2 -236,237c-122,140 -222,260 -222,266c0,6 77,163 172,348l171,336l45,-49c24,-27 116,-130 204,-229zm2778,-96c0,-6 18,-153 41,-328c22,-174 43,-347 48,-385l7,-67l-175,-99c-97,-53 -198,-110 -226,-126c-196,-111 -298,-166 -300,-163c-7,8 -93,793 -87,796c4,1 158,88 342,192c184,105 338,190 343,190c4,0 7,-5 7,-10zm441,-136c147,-80 272,-151 277,-157c5,-7 16,-70 26,-142c9,-71 21,-161 26,-200c54,-391 57,-415 44,-415c-4,0 -84,40 -178,89c-94,48 -217,112 -273,141c-57,29 -103,58 -103,64c0,18 -90,720 -95,744c-3,12 -2,22 2,22c4,0 127,-66 274,-146zm1484,49c65,-106 297,-498 307,-518c7,-15 0,-46 -25,-120c-48,-140 -58,-165 -65,-165c-12,0 -482,264 -482,271c0,5 36,106 81,226c44,120 92,251 107,291c15,39 30,72 34,72c4,0 24,-26 43,-57zm-4110,-475c143,-160 261,-294 263,-299c2,-4 -77,-53 -175,-109c-98,-56 -244,-140 -325,-186l-147,-85l-34,38c-19,21 -73,83 -120,138l-86,99l177,348c97,191 179,347 182,347c3,0 122,-131 265,-291zm3342,36c147,-81 277,-155 287,-165c18,-17 18,-19 -13,-98c-17,-45 -44,-116 -60,-158c-16,-43 -41,-109 -56,-148c-15,-38 -34,-90 -42,-115c-8,-25 -19,-49 -23,-54c-9,-9 -241,103 -267,128c-6,6 -19,65 -28,131c-51,383 -69,517 -81,593c-3,17 -1,32 5,32c5,0 130,-66 278,-146zm-4347,-164c121,-140 219,-259 217,-265c-2,-5 -12,-43 -22,-82c-11,-40 -22,-73 -25,-73c-6,0 -391,443 -419,483c-11,16 -12,33 -1,108c7,49 17,88 21,87c5,-2 108,-118 229,-258zm2330,194c0,-9 18,-178 41,-376c22,-198 39,-370 37,-380c-4,-25 -337,-214 -355,-201c-19,14 -495,544 -492,548c14,12 747,424 757,425c6,0 12,-7 12,-16zm-2395,-399c104,-121 197,-230 207,-241c19,-21 18,-23 -3,-108c-12,-48 -25,-85 -30,-84c-5,2 -94,131 -199,287c-161,240 -190,290 -190,321c0,36 7,53 21,48c3,-2 91,-102 194,-223zm4998,47c67,-38 171,-95 231,-127c59,-33 110,-64 113,-70c5,-15 -170,-541 -186,-558c-7,-7 -483,231 -505,253c-7,7 29,112 156,450c45,118 46,120 59,120c5,0 64,-31 132,-68zm-1276,-214c156,-79 283,-146 283,-150c0,-3 -153,-90 -340,-191l-341,-185l-286,137c-158,75 -288,141 -289,146c-3,8 666,383 686,386c3,0 132,-64 287,-143zm-2016,-209c134,-149 244,-275 244,-280c0,-9 -665,-383 -670,-377c-1,2 -109,126 -240,277l-238,275l23,15c30,20 623,359 631,360c3,1 115,-121 250,-270zm-1188,57l116,-133l101,-224c124,-272 116,-254 102,-245c-7,4 -120,133 -253,288l-241,280l22,77c22,75 28,91 34,91c2,0 55,-60 119,-134zm3785,-144c88,-46 122,-68 118,-79c-5,-11 -319,-497 -332,-512c-2,-2 -143,63 -314,144c-170,82 -307,151 -304,154c3,3 157,87 341,187c206,112 343,180 352,176c9,-3 71,-35 139,-70zm-3678,-265l281,-328l124,-276c69,-152 125,-281 125,-286c0,-11 -25,8 -234,172l-159,126l-221,330c-122,182 -232,347 -245,368l-23,39l28,94c15,52 31,93 35,92c4,-2 134,-151 289,-331zm2225,89c164,-77 280,-138 280,-146c0,-12 -145,-95 -475,-272c-52,-28 -132,-71 -178,-96c-46,-24 -84,-43 -86,-41c-8,11 -178,491 -175,494c4,3 96,56 184,105c28,16 75,42 105,59c30,17 57,30 60,30c3,0 131,-60 285,-133zm2230,-234c-8,-21 -338,-492 -345,-492c-4,0 -119,54 -256,119c-151,72 -249,124 -248,133c1,7 76,126 167,265l166,251l260,-131c171,-87 259,-136 256,-145zm-4070,-16l216,-251l99,-227c54,-126 95,-228 91,-228c-4,0 -108,118 -232,263l-224,262l-64,145c-34,80 -68,154 -73,165c-6,11 -24,51 -40,89c-37,90 -40,93 227,-218zm1119,-133c41,-109 80,-211 87,-226c16,-35 9,-42 -91,-94c-41,-22 -95,-51 -120,-65c-172,-96 -419,-228 -427,-228c-6,0 -32,51 -58,113c-27,61 -56,130 -65,152c-66,153 -80,189 -80,199c0,6 17,20 37,31c21,11 170,93 332,182c238,131 297,160 304,148c4,-8 41,-104 81,-212zm1521,5c190,-89 345,-166 345,-170c0,-9 -35,-65 -205,-323c-72,-110 -146,-224 -165,-253c-18,-29 -43,-55 -54,-57c-12,-2 -205,-20 -431,-40c-225,-20 -428,-38 -451,-41l-40,-6l-108,297c-59,163 -106,298 -104,299c2,2 102,56 223,121c121,65 267,144 325,175c200,110 295,160 308,160c7,0 168,-73 357,-162zm-2389,-453c214,-250 220,-259 267,-367c27,-60 47,-112 45,-114c-2,-2 -78,54 -168,125l-163,128l-108,239c-60,131 -108,243 -109,247c0,16 21,-7 236,-258zm2974,177c245,-112 405,-193 404,-206c-1,-8 -36,-64 -78,-125c-66,-95 -81,-111 -109,-115c-18,-3 -165,-17 -327,-31c-162,-14 -307,-28 -322,-31c-17,-3 -28,-1 -28,5c0,6 81,133 180,281l180,270l28,-14c15,-7 47,-23 72,-34zm-1940,-167c10,-28 32,-86 48,-130c43,-113 91,-243 108,-288c10,-29 11,-39 1,-42c-12,-4 -688,-65 -718,-65c-10,0 -32,35 -62,104c-26,57 -47,110 -47,117c0,14 627,360 643,356c5,-2 17,-25 27,-52zm-1240,-157c80,-63 150,-121 156,-129c7,-8 40,-77 74,-154c34,-77 71,-159 82,-183c10,-24 18,-47 16,-52c-2,-5 -36,18 -76,51c-64,53 -92,89 -252,329c-99,148 -180,273 -180,276c0,4 8,0 18,-8c9,-8 82,-67 162,-130zm386,-303c197,-154 183,-136 279,-359c47,-109 84,-200 82,-203c-3,-2 -77,56 -165,128l-161,132l-65,146c-36,80 -77,172 -91,204c-14,33 -21,57 -16,55c5,-1 67,-48 137,-103zm2948,53c-10,-18 -296,-431 -305,-442c-7,-8 -691,-78 -698,-70c-2,2 65,107 149,234c133,200 156,230 179,230c14,1 161,14 326,29c363,35 358,35 349,19zm-884,-73c0,-3 -55,-89 -123,-193c-68,-103 -133,-204 -145,-224c-13,-20 -31,-39 -40,-42c-24,-7 -259,-30 -312,-31l-45,0l-35,95c-64,170 -115,319 -110,323c4,4 714,73 783,76c15,0 27,-1 27,-4zm-918,-295c42,-113 77,-208 78,-211c0,-5 -52,-11 -340,-40c-58,-5 -144,-14 -191,-19c-47,-6 -109,-10 -138,-10l-52,0l-26,57c-45,100 -152,357 -150,360c6,5 685,72 717,70c23,-2 31,-19 102,-207z"
        />
        <path
          id="svg_42"
          d="m11840.67383,-1328.7749c23,-2 59,-2 80,0c20,2 1,4 -43,4c-44,0 -61,-2 -37,-4z"
        />
        <path
          id="svg_43"
          d="m11260.67383,-1348.7749c23,-2 59,-2 80,0c20,2 1,4 -43,4c-44,0 -61,-2 -37,-4z"
        />
        <path
          id="svg_44"
          d="m10670.67383,-1368.7749c23,-2 61,-2 85,0c23,2 4,4 -43,4c-47,0 -66,-2 -42,-4z"
        />
        <path
          id="svg_45"
          d="m10380.67383,-1378.7749c23,-2 61,-2 85,0c23,2 4,4 -43,4c-47,0 -66,-2 -42,-4z"
        />
        <path
          id="svg_46"
          d="m9172.67383,-5391.7749c0,-5 5,-10 11,-10c5,0 7,5 4,10c-3,6 -8,10 -11,10c-2,0 -4,-4 -4,-10z"
        />
        <path
          id="svg_47"
          d="m9442.67383,-5791.7749c0,-5 5,-10 11,-10c5,0 7,5 4,10c-3,6 -8,10 -11,10c-2,0 -4,-4 -4,-10z"
        />
        <path
          id="svg_48"
          d="m9462.67383,-5821.7749c0,-5 5,-10 11,-10c5,0 7,5 4,10c-3,6 -8,10 -11,10c-2,0 -4,-4 -4,-10z"
        />
        <path
          id="svg_49"
          d="m9482.67383,-5851.7749c0,-5 5,-10 11,-10c5,0 7,5 4,10c-3,6 -8,10 -11,10c-2,0 -4,-4 -4,-10z"
        />
        <path
          id="svg_50"
          d="m9502.67383,-5881.7749c0,-5 5,-10 11,-10c5,0 7,5 4,10c-3,6 -8,10 -11,10c-2,0 -4,-4 -4,-10z"
        />
        <path
          id="svg_51"
          d="m9608.67383,-6034.7749c3,-10 9,-15 12,-12c3,3 0,11 -7,18c-10,9 -11,8 -5,-6z"
        />
        <path
          id="svg_52"
          d="m9672.67383,-6131.7749c0,-5 5,-10 11,-10c5,0 7,5 4,10c-3,6 -8,10 -11,10c-2,0 -4,-4 -4,-10z"
        />
      </g>
    </g>
    <line
      stroke="#000000"
      stroke-linecap="undefined"
      stroke-linejoin="undefined"
      id="svg_54"
      y2="379.00077"
      x2="294.00059"
      y1="327.50067"
      x1="259.75052"
      stroke-width="1.5"
      fill="none"
    />
    <line
      stroke-linecap="undefined"
      stroke-linejoin="undefined"
      id="svg_56"
      y2="378.50077"
      x2="293.50059"
      y1="404.00082"
      x1="324.50065"
      fill-opacity="null"
      stroke-width="1.5"
      stroke="#000000"
      fill="none"
    />
    <line
      stroke="#000000"
      stroke-linecap="undefined"
      stroke-linejoin="undefined"
      id="svg_57"
      y2="231.25047"
      x2="370.50074"
      y1="234.00048"
      x1="307.50061"
      fill-opacity="null"
      stroke-opacity="null"
      stroke-width="1.5"
      fill="none"
    />
    <line
      stroke="#000000"
      stroke-linecap="undefined"
      stroke-linejoin="undefined"
      id="svg_58"
      y2="231.25047"
      x2="369.50074"
      y1="241.00049"
      x1="407.25082"
      fill-opacity="null"
      stroke-opacity="null"
      stroke-width="1.5"
      fill="none"
    />
  </g>
</svg>
