<?xml version="1.0" standalone="no"?>
<!DOCTYPE svg PUBLIC "-//W3C//DTD SVG 20010904//EN"
 "http://www.w3.org/TR/2001/REC-SVG-20010904/DTD/svg10.dtd">
<svg version="1.0" xmlns="http://www.w3.org/2000/svg"
 width="200.000000pt" height="200.000000pt" viewBox="0 0 200.000000 200.000000"
 preserveAspectRatio="xMidYMid meet">
<metadata>
Created by potrace 1.16, written by Peter Selinger 2001-2019
</metadata>
<g transform="translate(0.000000,200.000000) scale(0.100000,-0.100000)"
fill="#000000" stroke="none">
<path d="M0 1000 l0 -1000 1000 0 1000 0 0 1000 0 1000 -1000 0 -1000 0 0
-1000z m1109 688 c-63 -30 -110 -46 -121 -42 -11 3 -59 25 -109 48 l-89 43
106 45 107 45 104 -45 104 -46 -102 -48z m-245 -29 l88 -43 -113 -54 -114 -54
-102 54 c-56 29 -99 55 -97 57 18 18 204 90 224 86 14 -2 65 -23 114 -46z
m503 9 c54 -23 101 -44 105 -47 4 -4 -37 -31 -93 -60 l-100 -53 -115 53 -116
54 99 47 c54 26 103 48 110 48 6 0 56 -19 110 -42z m-794 -129 l102 -52 -90
-42 c-50 -23 -114 -45 -143 -49 -49 -6 -57 -4 -137 40 -47 26 -83 49 -82 50 8
8 224 103 235 103 7 1 58 -22 115 -50z m541 1 c58 -27 106 -51 106 -54 0 -3
-27 -19 -60 -36 -54 -27 -68 -30 -160 -30 -92 0 -106 3 -160 30 -33 17 -60 33
-60 36 0 6 200 102 216 103 7 1 60 -21 118 -49z m544 2 c62 -27 114 -51 117
-54 3 -2 -36 -27 -87 -55 -75 -42 -96 -49 -115 -42 -14 5 -32 9 -42 9 -10 0
-61 20 -112 44 l-94 43 100 51 c55 28 105 51 111 51 5 1 61 -21 122 -47z
m-893 -102 l30 -20 -72 0 c-39 0 -80 -2 -90 -5 -10 -3 5 6 32 20 60 30 62 30
100 5z m565 0 l35 -19 -80 0 -80 0 35 19 c19 11 40 19 45 19 6 0 26 -8 45 -19z"/>
</g>
</svg>
