<?xml version="1.0" standalone="no"?>
<!DOCTYPE svg PUBLIC "-//W3C//DTD SVG 20010904//EN"
 "http://www.w3.org/TR/2001/REC-SVG-20010904/DTD/svg10.dtd">
<svg version="1.0" xmlns="http://www.w3.org/2000/svg"
 width="286.000000pt" height="291.000000pt" viewBox="0 0 286.000000 291.000000"
 preserveAspectRatio="xMidYMid meet">
<metadata>
Created by potrace 1.16, written by Peter Selinger 2001-2019
</metadata>
<g transform="translate(0.000000,291.000000) scale(0.100000,-0.100000)"
fill="#000000" stroke="none">
<path d="M0 2408 c0 -479 1 -501 17 -478 27 39 44 58 108 124 93 97 261 274
355 376 47 50 94 100 104 111 22 21 114 68 196 99 30 12 73 30 95 40 22 9 85
36 140 58 111 44 261 106 315 129 106 45 143 43 -617 43 l-713 0 0 -502z"/>
<path d="M1455 2903 c22 -6 49 -17 210 -93 233 -108 304 -144 300 -148 -5 -5
-13 -1 -225 101 -160 77 -276 127 -294 127 -7 0 -31 -9 -54 -20 -22 -11 -45
-20 -49 -20 -5 0 -62 -23 -128 -51 -66 -27 -176 -73 -245 -100 -69 -28 -147
-61 -175 -73 -27 -12 -75 -33 -106 -45 -58 -23 -106 -68 -329 -306 -41 -44
-110 -118 -155 -165 -122 -130 -180 -194 -188 -207 -4 -6 9 -210 28 -454 l35
-442 73 -131 c39 -72 77 -138 82 -148 6 -9 64 -117 130 -238 66 -121 129 -232
140 -246 20 -25 29 -28 360 -105 50 -12 181 -43 293 -70 112 -27 218 -49 235
-49 18 0 104 14 192 31 88 17 196 37 240 45 44 8 87 17 96 19 9 3 25 2 35 -2
14 -6 6 -10 -31 -14 -49 -6 -167 -28 -395 -74 l-115 -23 723 -1 722 -1 -1 893
c-1 572 -5 862 -11 807 -4 -47 -20 -173 -34 -280 -29 -224 -30 -232 -39 -359
-8 -104 -29 -154 -126 -298 -27 -40 -52 -80 -56 -89 -3 -9 -29 -52 -57 -95
-144 -220 -221 -342 -222 -350 -1 -5 -2 -14 -3 -20 0 -5 -5 -8 -9 -5 -4 2 -14
1 -22 -4 -10 -6 -23 6 -50 43 -56 81 -56 80 -29 73 13 -3 19 -3 13 0 -14 6 36
101 114 216 57 84 67 94 78 77 5 -8 3 -9 -5 -5 -8 5 -11 3 -9 -5 1 -8 -11 -34
-28 -59 -52 -76 -94 -157 -100 -195 -8 -51 4 -95 26 -95 18 0 91 105 146 210
16 30 31 57 34 60 16 16 29 50 19 50 -6 0 -3 7 5 16 18 18 22 39 5 28 -7 -4
-10 -1 -7 7 3 8 11 14 18 14 7 0 16 9 21 20 4 11 8 15 8 8 1 -19 29 -4 37 20
4 11 18 37 33 58 118 166 138 218 148 374 3 55 12 113 20 129 21 42 1 56 -26
18 -11 -17 -21 -33 -21 -36 0 -3 -11 -22 -25 -42 -14 -20 -25 -31 -25 -25 0 7
-6 19 -14 27 -11 11 -16 11 -19 1 -3 -6 -6 -2 -6 11 -1 19 3 22 27 16 15 -3
22 -2 16 3 -6 4 -10 27 -10 50 1 35 3 40 14 29 11 -10 11 -19 3 -34 -7 -14 -8
-23 -1 -27 5 -3 10 3 10 15 0 12 4 19 8 16 4 -2 9 18 10 45 1 30 -2 48 -8 44
-5 -3 -6 -13 -3 -22 4 -11 2 -14 -8 -11 -20 7 -24 38 -5 38 9 0 16 6 16 13 0
25 20 -18 20 -45 0 -14 6 -29 13 -31 10 -4 10 -6 0 -6 -7 -1 -13 -9 -13 -18 1
-17 2 -16 15 1 8 10 12 23 9 27 -3 5 2 22 11 39 18 35 10 61 -11 33 -7 -10
-14 -13 -14 -6 0 7 13 22 30 34 17 13 29 31 29 43 0 12 7 66 15 121 18 113 20
195 7 195 -17 0 -74 -64 -89 -100 -20 -47 -44 -155 -46 -207 0 -22 -5 -39 -10
-36 -10 6 -2 129 16 243 8 53 17 79 30 88 14 10 16 17 8 27 -8 10 -4 14 17 19
16 4 36 9 46 12 9 3 17 0 17 -6 0 -6 -5 -8 -12 -4 -7 4 -8 3 -4 -4 11 -19 26
-14 26 8 0 25 27 27 33 3 3 -10 5 235 6 545 l1 562 -712 -1 c-392 -1 -704 -4
-693 -6z m113 -179 c12 -8 22 -12 22 -7 0 4 5 1 10 -8 5 -9 31 -24 56 -34 51
-19 124 -65 105 -65 -21 0 -241 110 -241 120 0 15 22 12 48 -6z m582 -141 c83
-40 135 -71 155 -94 17 -19 68 -79 115 -134 46 -55 102 -121 125 -146 22 -25
53 -61 69 -80 34 -41 137 -158 188 -213 35 -39 43 -53 34 -58 -2 -2 -48 49
-102 112 -54 63 -108 125 -121 137 -13 12 -23 25 -23 28 0 3 -17 24 -37 46
-21 23 -47 52 -58 67 -11 14 -67 79 -124 145 l-104 120 -144 69 c-79 38 -143
71 -143 73 0 7 36 -9 170 -72z m-64 -35 l29 -33 -32 29 c-31 28 -38 36 -30 36
2 0 16 -15 33 -32z m59 -58 c7 0 15 -8 17 -17 3 -10 18 -25 34 -33 16 -8 43
-24 59 -36 17 -12 54 -34 83 -49 76 -41 57 -42 -24 -2 -38 19 -79 38 -91 41
-25 8 -103 90 -102 108 0 10 2 10 6 1 2 -7 11 -13 18 -13z m-500 -199 c99 -74
185 -140 190 -146 6 -6 40 -33 77 -59 37 -25 73 -54 80 -64 7 -10 21 -21 30
-25 17 -6 333 -242 376 -281 13 -11 21 -27 19 -36 -3 -8 -31 -85 -62 -170 -31
-85 -62 -174 -70 -198 -7 -24 -21 -54 -30 -68 -9 -14 -14 -28 -11 -31 5 -5
-42 -145 -69 -208 -7 -16 -18 -46 -23 -65 -14 -49 -119 -348 -127 -360 -9 -14
22 -43 37 -34 8 5 9 2 5 -9 -8 -21 2 -49 14 -41 5 3 12 -2 15 -10 3 -9 12 -16
19 -16 23 0 33 -23 20 -48 -12 -23 -14 -22 -65 51 l-52 74 -246 7 c-356 11
-443 13 -667 15 -110 1 -227 5 -260 9 l-60 7 -68 230 c-38 127 -81 272 -98
324 -16 51 -29 104 -29 116 0 13 -4 25 -8 27 -5 2 -20 44 -35 93 -14 50 -45
155 -68 234 -24 80 -39 146 -34 148 6 2 93 61 195 133 102 71 193 129 203 130
9 0 17 4 17 10 0 12 139 110 156 110 7 0 17 7 21 14 8 14 54 47 306 219 56 38
104 64 110 60 7 -4 93 -68 192 -142z m-65 118 c0 -18 -35 -5 -38 14 -3 16 -1
17 17 7 12 -6 21 -15 21 -21z m180 -151 c0 -16 -17 -7 -53 26 -20 18 -37 32
-37 29 0 -2 -5 -1 -10 2 -6 4 -8 11 -4 16 5 9 103 -59 104 -73z m760 -217 c0
-4 18 -26 40 -47 22 -22 40 -45 40 -51 0 -7 6 -13 13 -13 21 -1 69 -50 63 -65
-5 -15 -36 -10 -36 6 0 4 -27 39 -61 76 -67 75 -86 103 -69 103 5 0 10 -4 10
-9z m-312 -123 c7 -10 19 -18 27 -18 8 0 20 -8 27 -18 7 -11 20 -21 28 -24 7
-2 10 -7 4 -10 -9 -6 -126 76 -132 93 -6 15 32 -4 46 -23z m158 -102 c19 -19
18 -28 -3 -24 -9 2 -17 11 -19 21 -3 21 3 22 22 3z m349 -46 c3 -5 1 -10 -4
-10 -6 0 -11 5 -11 10 0 6 2 10 4 10 3 0 8 -4 11 -10z m-44 -84 c-11 -58 -30
-106 -31 -76 0 13 -1 13 -10 0 -7 -12 -10 -8 -11 15 0 27 -2 25 -19 -20 -23
-61 -26 -47 -4 18 15 44 36 55 47 24 2 -7 2 -1 0 13 -3 14 -10 28 -16 32 -9 6
-9 8 1 8 6 0 11 3 10 8 -1 4 2 20 7 35 7 25 9 27 22 14 12 -12 13 -25 4 -71z
m-74 42 c-3 -8 -6 -5 -6 6 -1 11 2 17 5 13 3 -3 4 -12 1 -19z m-14 -7 c3 -13
0 -18 -7 -15 -7 3 -13 11 -13 19 0 22 14 18 20 -4z m-33 -37 c0 -6 -11 -16
-24 -23 -49 -27 -114 -134 -166 -273 -21 -58 -40 -83 -40 -54 0 16 37 125 80
240 12 32 31 65 41 74 10 9 19 23 19 30 0 12 3 12 15 2 12 -10 16 -10 20 1 6
16 55 19 55 3z m70 -114 c0 -5 -5 -10 -11 -10 -5 0 -7 5 -4 10 3 6 8 10 11 10
2 0 4 -4 4 -10z m26 -27 c-10 -10 -19 5 -10 18 6 11 8 11 12 0 2 -7 1 -15 -2
-18z m-105 -129 c-6 -14 -9 -35 -6 -45 4 -11 2 -19 -3 -19 -19 0 -21 14 -6 48
8 20 12 43 9 51 -5 13 -4 13 6 4 10 -10 10 -18 0 -39z m73 37 c4 -5 -3 -7 -14
-4 -28 7 -25 -4 5 -20 l26 -13 -26 -24 c-14 -13 -25 -18 -25 -12 0 7 6 12 13
13 9 0 9 2 0 5 -7 3 -9 12 -6 20 6 17 -13 19 -21 2 -3 -7 -4 -4 -3 7 3 30 38
48 51 26z m-44 -76 c0 -12 -19 -12 -23 0 -4 9 -1 12 9 8 7 -3 14 -7 14 -8z
m31 -85 c10 0 19 -5 19 -11 0 -5 -4 -8 -9 -4 -5 3 -16 -2 -24 -10 -14 -13 -16
-13 -20 3 -3 10 -5 7 -6 -10 0 -15 -5 -29 -9 -32 -5 -3 -6 9 -4 26 3 21 1 29
-7 24 -6 -4 -11 -14 -11 -23 0 -9 -3 -14 -6 -10 -12 12 8 49 23 43 10 -4 17 2
21 16 5 19 7 20 10 6 2 -10 12 -18 23 -18z m9 26 c0 -3 -4 -8 -10 -11 -5 -3
-10 -1 -10 4 0 6 5 11 10 11 6 0 10 -2 10 -4z m-109 -59 c-10 -9 -11 -8 -5 6
3 10 9 15 12 12 3 -3 0 -11 -7 -18z m156 1 c-3 -8 -6 -5 -6 6 -1 11 2 17 5 13
3 -3 4 -12 1 -19z m-57 -32 c0 -11 -19 -15 -25 -6 -3 5 1 10 9 10 9 0 16 -2
16 -4z m-220 -36 c0 -5 -2 -10 -4 -10 -3 0 -8 5 -11 10 -3 6 -1 10 4 10 6 0
11 -4 11 -10z m90 0 c0 -5 -5 -10 -11 -10 -5 0 -7 5 -4 10 3 6 8 10 11 10 2 0
4 -4 4 -10z m137 -32 c-3 -8 -6 -5 -6 6 -1 11 2 17 5 13 3 -3 4 -12 1 -19z
m89 -72 c-49 -96 -67 -148 -87 -246 -7 -35 -14 -59 -17 -52 -8 24 18 174 37
218 21 47 103 176 108 170 2 -1 -17 -42 -41 -90z m-31 60 c0 -13 -3 -22 -7
-19 -5 2 -8 -4 -8 -13 0 -10 -2 -15 -5 -12 -7 6 6 68 14 68 3 0 6 -11 6 -24z
m-202 -13 c-3 -7 -6 -13 -8 -13 -2 0 -5 6 -8 13 -3 8 1 14 8 14 7 0 11 -6 8
-14z m-66 -155 c-3 -8 -6 -5 -6 6 -1 11 2 17 5 13 3 -3 4 -12 1 -19z m-210
-91 c-3 -12 -21 -65 -40 -118 -19 -53 -38 -119 -42 -145 -6 -50 -23 -80 -32
-56 -3 6 -8 10 -12 7 -4 -2 2 31 15 73 35 119 82 246 92 250 6 2 8 13 5 25 -4
20 -3 21 7 4 7 -11 10 -29 7 -40z m313 -32 c0 -5 -5 -3 -10 5 -5 8 -10 20 -10
25 0 6 5 3 10 -5 5 -8 10 -19 10 -25z m58 -112 c0 -21 -2 -23 -10 -9 -5 9 -6
21 -3 26 10 16 13 12 13 -17z m-250 -29 c-3 -14 -5 -12 -10 9 -3 19 -2 25 4
19 6 -6 8 -18 6 -28z m158 -40 c-4 -9 -9 -15 -11 -12 -3 3 -3 13 1 22 4 9 9
15 11 12 3 -3 3 -13 -1 -22z m-106 2 c0 -2 -7 -6 -15 -10 -8 -3 -15 -1 -15 4
0 6 7 10 15 10 8 0 15 -2 15 -4z m145 -26 c-3 -5 -10 -10 -16 -10 -5 0 -9 5
-9 10 0 6 7 10 16 10 8 0 12 -4 9 -10z m-148 -6 c-3 -3 -12 -4 -19 -1 -8 3 -5
6 6 6 11 1 17 -2 13 -5z m-17 -24 c0 -13 -46 -86 -59 -95 -11 -6 -31 54 -23
69 7 12 21 -15 15 -30 -9 -24 14 -23 25 1 7 15 8 26 2 30 -13 8 -13 25 0 25 6
0 10 -7 10 -16 0 -8 5 -12 11 -9 6 4 8 13 5 21 -3 8 -1 14 4 14 6 0 10 -5 10
-10z m140 -20 c0 -5 -5 -10 -11 -10 -5 0 -7 5 -4 10 3 6 8 10 11 10 2 0 4 -4
4 -10z m-253 -55 c-15 -16 -19 -13 -11 9 3 9 10 13 15 10 5 -3 3 -11 -4 -19z
m-1313 -10 c3 -9 0 -17 -7 -20 -24 -7 -87 -14 -87 -9 0 11 27 32 46 37 34 9
42 7 48 -8z m256 -5 c-20 -13 -170 -13 -170 0 0 6 37 10 93 10 63 0 87 -3 77
-10z m1080 4 c0 -3 -8 -17 -19 -30 -19 -24 -31 -22 -31 5 0 13 2 13 9 2 7 -11
10 -9 16 8 6 19 25 30 25 15z m-481 -13 c11 -7 9 -10 -9 -16 -28 -9 -130 3
-130 16 0 11 120 12 139 0z m177 -16 c18 -14 18 -14 -8 -15 -32 0 -58 9 -58
21 0 14 44 10 66 -6z m317 -21 c-4 -12 -8 -13 -14 -3 -9 15 -2 32 11 24 5 -3
6 -13 3 -21z m-1463 1 c-7 -8 -18 -15 -24 -15 -6 0 -2 7 8 15 25 19 32 19 16
0z m1426 -61 c-3 -8 -11 -12 -17 -8 -7 4 -9 3 -6 -4 7 -10 -22 -72 -34 -72 -4
0 -12 7 -19 15 -11 13 -9 19 9 36 12 11 18 25 15 31 -4 6 -3 8 4 5 16 -10 42
3 43 22 0 10 2 12 6 3 3 -7 2 -20 -1 -28z m-1486 -124 c3 -5 29 -11 58 -15 29
-3 71 -12 95 -20 l42 -13 -40 -1 c-22 0 -56 3 -75 9 -47 12 -158 16 -195 6
l-30 -8 33 32 c29 27 38 30 70 24 20 -4 39 -10 42 -14z m1097 -12 c-3 -8 -6
-5 -6 6 -1 11 2 17 5 13 3 -3 4 -12 1 -19z m280 -18 c2 -17 -4 -20 -38 -20
-35 0 -38 2 -26 14 7 8 25 16 38 19 13 2 24 5 24 6 1 0 1 -8 2 -19z m-105 -7
c-6 -2 -10 -8 -7 -13 6 -9 -106 -30 -151 -29 -29 1 -29 1 6 11 69 21 184 44
152 31z m-872 -13 c13 -8 13 -10 -2 -10 -9 0 -20 5 -23 10 -8 13 5 13 25 0z
m103 -17 c-7 -2 -19 -2 -25 0 -7 3 -2 5 12 5 14 0 19 -2 13 -5z m100 -30 c-7
-2 -19 -2 -25 0 -7 3 -2 5 12 5 14 0 19 -2 13 -5z m-293 -23 c0 -5 1 -13 3
-17 1 -3 -6 -7 -15 -9 -10 -1 -18 2 -18 7 0 5 5 9 11 9 5 0 7 5 4 10 -3 6 -1
10 4 10 6 0 11 -4 11 -10z m160 -5 c0 -12 -19 -12 -23 0 -4 9 -1 12 9 8 7 -3
14 -7 14 -8z m1007 -11 c-3 -3 -12 -4 -19 -1 -8 3 -5 6 6 6 11 1 17 -2 13 -5z
m-1230 -10 c-3 -3 -12 -4 -19 -1 -8 3 -5 6 6 6 11 1 17 -2 13 -5z m808 -4 c-3
-5 -14 -10 -23 -10 -15 0 -15 2 -2 10 20 13 33 13 25 0z m375 0 c13 -8 13 -10
-2 -10 -9 0 -20 5 -23 10 -8 13 5 13 25 0z m-947 -7 c-7 -2 -19 -2 -25 0 -7 3
-2 5 12 5 14 0 19 -2 13 -5z m892 -3 c3 -5 2 -10 -4 -10 -5 0 -13 5 -16 10 -3
6 -2 10 4 10 5 0 13 -4 16 -10z m-651 -20 c7 -5 15 -8 17 -5 3 2 27 -2 54 -10
l50 -14 -50 5 c-27 3 -59 8 -70 11 -38 11 -101 9 -203 -4 -57 -8 -106 -13
-108 -10 -3 2 42 14 98 25 103 21 189 22 212 2z m593 14 c-3 -3 -12 -4 -19 -1
-8 3 -5 6 6 6 11 1 17 -2 13 -5z m-934 -11 c-7 -2 -19 -2 -25 0 -7 3 -2 5 12
5 14 0 19 -2 13 -5z m887 -3 c12 -8 11 -10 -7 -10 -13 0 -23 5 -23 10 0 13 11
13 30 0z m-393 -36 c-3 -3 -12 -4 -19 -1 -8 3 -5 6 6 6 11 1 17 -2 13 -5z"/>
<path d="M1356 1873 c4 -20 -2 -39 -21 -67 -14 -21 -24 -40 -22 -42 2 -2 22 2
44 10 38 13 114 13 155 0 19 -6 19 -5 3 26 -9 18 -15 46 -13 61 5 33 -1 35
-41 14 -26 -13 -32 -12 -67 5 -21 11 -39 20 -41 20 -1 0 0 -12 3 -27z"/>
<path d="M981 1605 c11 -39 0 -68 -31 -85 -28 -15 -25 -27 9 -33 18 -4 40 -22
61 -49 18 -24 30 -34 26 -23 -16 59 -17 77 -6 112 6 21 28 52 48 70 l36 31
-61 -5 c-39 -4 -63 -2 -67 6 -15 24 -24 9 -15 -24z"/>
<path d="M1328 1579 c-49 -28 -88 -54 -88 -58 0 -3 41 -30 91 -59 l91 -52 54
31 c30 17 54 34 54 37 0 15 -105 63 -122 57 -25 -10 -22 -20 8 -33 14 -7 22
-16 19 -22 -6 -9 -95 28 -95 40 0 3 20 16 43 29 l44 24 68 -41 c58 -34 71 -39
91 -30 13 6 24 14 24 18 0 8 -174 110 -187 110 -5 0 -47 -23 -95 -51z"/>
<path d="M1730 1613 c0 -5 4 -13 9 -18 17 -17 51 -133 51 -171 l0 -38 36 42
c24 28 44 42 60 42 31 0 31 13 -2 35 -24 16 -26 21 -21 66 6 47 5 49 -15 38
-20 -11 -68 -8 -100 6 -10 4 -18 3 -18 -2z"/>
<path d="M1220 1388 c0 -94 3 -113 18 -124 25 -19 32 -17 32 11 0 31 6 31 53
0 27 -19 37 -33 37 -52 0 -23 23 -52 43 -53 4 0 7 49 7 109 l0 110 -57 34
c-32 18 -75 43 -95 55 l-38 21 0 -111z m140 -49 c0 -24 -3 -24 -50 4 -27 15
-40 29 -40 44 l0 22 45 -26 c29 -16 45 -32 45 -44z"/>
<path d="M1603 1487 c-20 -9 -23 -18 -23 -69 0 -32 -3 -58 -7 -58 -5 0 -28 12
-52 25 -67 39 -81 29 -82 -58 -1 -40 -3 -89 -4 -109 -4 -45 4 -53 33 -32 18
13 22 25 22 75 0 32 2 59 5 59 3 0 29 -14 59 -30 72 -41 78 -33 74 102 -3 105
-3 105 -25 95z"/>
<path d="M1101 1154 c-1 -38 -6 -56 -21 -69 -27 -25 -25 -35 8 -35 36 0 68
-23 76 -55 8 -31 18 -32 31 -3 6 13 25 30 44 39 l34 16 -48 24 c-43 21 -69 48
-112 115 -10 16 -12 11 -12 -32z"/>
<path d="M1668 1129 c-28 -29 -66 -54 -98 -66 l-52 -20 45 -17 c32 -12 49 -26
60 -48 l15 -32 15 36 c17 40 42 58 83 58 27 0 27 0 8 21 -10 11 -21 42 -24 67
l-5 47 -47 -46z"/>
<path d="M2115 450 c-3 -5 -1 -10 4 -10 6 0 11 5 11 10 0 6 -2 10 -4 10 -3 0
-8 -4 -11 -10z"/>
<path d="M2651 1684 c0 -11 3 -14 6 -6 3 7 2 16 -1 19 -3 4 -6 -2 -5 -13z"/>
<path d="M1 903 l-1 -903 688 1 c633 1 682 2 627 16 -98 25 -448 108 -624 149
-151 36 -167 41 -198 73 -18 19 -33 38 -33 43 0 5 -28 60 -62 121 -84 153 -90
165 -216 393 l-110 200 -10 105 c-6 57 -14 142 -18 189 -3 47 -14 182 -24 300
l-18 215 -1 -902z"/>
<path d="M2750 1774 c0 -8 5 -12 10 -9 6 3 10 10 10 16 0 5 -4 9 -10 9 -5 0
-10 -7 -10 -16z"/>
</g>
</svg>
