<?xml version="1.0" standalone="no"?>
<!DOCTYPE svg PUBLIC "-//W3C//DTD SVG 20010904//EN"
 "http://www.w3.org/TR/2001/REC-SVG-20010904/DTD/svg10.dtd">
<svg version="1.0" xmlns="http://www.w3.org/2000/svg"
 width="435.000000pt" height="453.000000pt" viewBox="0 0 435.000000 453.000000"
 preserveAspectRatio="xMidYMid meet">
<metadata>
Created by potrace 1.16, written by Peter Selinger 2001-2019
</metadata>
<g transform="translate(0.000000,453.000000) scale(0.100000,-0.100000)"
fill="#000000" stroke="none">
<path d="M1 2438 l2 -2093 18 325 c10 179 20 388 23 465 2 77 13 293 24 480
12 187 32 556 47 820 14 264 32 584 40 710 7 127 26 486 42 799 22 468 30 569
42 574 8 3 208 -5 445 -17 237 -12 519 -26 626 -32 107 -5 267 -10 354 -9 88
0 164 -4 170 -9 14 -10 178 -20 1371 -81 528 -27 1002 -52 1053 -56 l92 -6 0
111 0 111 -2175 0 -2175 0 1 -2092z"/>
<path d="M1622 4425 c-4 -5 -7 -12 -8 -15 -6 -34 -18 -59 -25 -54 -5 3 -6 -2
-3 -10 4 -10 1 -16 -9 -16 -10 0 -13 -7 -10 -20 4 -14 0 -20 -11 -20 -10 0
-14 -4 -11 -10 3 -5 1 -10 -5 -10 -6 0 -9 -4 -6 -9 9 -14 -5 -41 -21 -41 -10
0 -12 -6 -8 -20 5 -15 2 -20 -12 -20 -15 0 -16 -2 -3 -10 12 -8 12 -10 -5 -10
-17 0 -17 -2 -5 -10 12 -8 12 -10 -5 -10 -17 0 -17 -2 -5 -10 13 -8 13 -10 -2
-10 -12 0 -15 -5 -11 -17 5 -12 3 -14 -7 -8 -10 6 -12 4 -7 -8 3 -10 2 -17 -4
-17 -6 0 -7 -4 -4 -10 3 -5 1 -10 -5 -10 -6 0 -8 -4 -5 -10 3 -5 1 -10 -4 -10
-6 0 -10 -3 -10 -7 3 -20 -2 -34 -11 -28 -6 3 -7 -1 -4 -9 4 -11 0 -16 -12
-17 -11 0 -14 -3 -7 -5 7 -3 2 -21 -15 -52 -14 -26 -28 -49 -31 -52 -3 -3 -8
-14 -10 -25 -5 -33 -21 -55 -39 -55 -15 0 -15 -2 -2 -10 12 -8 10 -10 -10 -11
-17 -1 -19 -3 -8 -6 14 -4 16 -8 7 -24 -5 -11 -14 -17 -19 -14 -6 4 -7 -1 -3
-11 4 -12 3 -15 -5 -10 -8 5 -10 1 -5 -10 5 -13 3 -15 -7 -9 -9 5 -11 4 -6 -4
8 -12 -89 -203 -106 -210 -5 -2 0 -10 11 -18 23 -15 29 -38 8 -30 -6 2 -18 -2
-25 -10 -12 -12 -10 -13 12 -7 16 4 26 2 26 -5 0 -6 -9 -11 -20 -11 -11 0 -28
-9 -37 -20 -10 -11 -23 -20 -30 -20 -7 0 -10 -7 -7 -15 4 -8 1 -15 -6 -15 -6
0 -8 -4 -5 -10 3 -5 1 -10 -4 -10 -6 0 -10 -4 -8 -8 4 -13 -116 -241 -125
-236 -4 3 -5 -2 -2 -10 3 -9 1 -16 -5 -16 -6 0 -10 -3 -10 -7 5 -29 -3 -43
-23 -43 -19 0 -20 -2 -8 -11 11 -8 12 -12 2 -16 -6 -2 -10 -9 -6 -14 3 -5 0
-9 -6 -9 -6 0 -8 -5 -5 -10 9 -14 -76 -171 -88 -163 -6 3 -7 1 -3 -5 4 -7 -45
-117 -108 -246 -64 -129 -116 -240 -116 -247 0 -7 7 -20 16 -30 15 -17 15 -20
-10 -49 -14 -18 -26 -37 -26 -44 0 -7 -11 -23 -25 -36 -23 -22 -54 -79 -145
-277 -24 -51 -47 -90 -51 -87 -5 3 -6 -1 -4 -8 5 -12 -39 -113 -156 -355 -22
-45 -46 -101 -54 -124 -17 -49 -12 -62 65 -164 27 -36 54 -74 60 -85 6 -11 16
-17 24 -14 9 3 15 -4 18 -20 3 -14 1 -26 -5 -26 -5 0 5 -15 23 -32 18 -18 51
-58 74 -88 22 -30 60 -78 82 -107 27 -32 44 -66 49 -92 4 -23 11 -43 15 -46 5
-3 5 9 -1 27 -12 43 -12 68 1 68 6 0 10 -14 10 -31 0 -33 5 -39 155 -196 44
-46 87 -102 95 -123 19 -47 34 -65 49 -56 16 10 13 41 -4 56 -20 17 -19 43 4
64 19 18 31 59 96 351 20 88 65 288 100 445 74 333 93 414 101 433 3 9 -2 13
-18 13 -17 -1 -24 5 -26 23 -4 28 15 43 39 30 15 -8 20 -2 32 38 16 57 16 58
-87 142 -124 101 -136 109 -157 104 -24 -7 -68 -58 -81 -95 -6 -16 -14 -25
-19 -22 -5 3 -2 20 5 39 8 19 18 56 21 82 10 72 15 83 35 83 19 0 87 -58 83
-71 -2 -6 181 -141 242 -179 30 -18 46 -5 17 16 -22 15 -20 44 4 44 8 0 14 2
14 4 0 2 18 91 40 197 23 107 47 226 55 264 8 39 26 124 40 190 14 66 34 161
44 210 10 50 34 164 54 255 19 91 41 193 48 228 8 43 19 68 33 77 16 12 17 15
4 15 -9 0 -19 11 -22 24 -5 19 -11 23 -27 19 -16 -4 -20 -2 -17 8 3 8 14 13
24 12 17 -2 24 22 66 235 26 132 43 238 37 240 -5 2 -9 8 -9 13 0 6 4 8 9 4
13 -8 21 26 76 325 15 80 33 173 40 207 l13 63 -35 -3 c-19 -1 -38 -6 -41 -12z
m15 -117 c-3 -7 -5 -2 -5 12 0 14 2 19 5 13 2 -7 2 -19 0 -25z m-30 -130 c-3
-7 -5 -2 -5 12 0 14 2 19 5 13 2 -7 2 -19 0 -25z m-169 -1011 c4 -20 -25 -34
-39 -20 -14 14 1 45 20 41 9 -2 17 -11 19 -21z m-94 -154 c-69 -126 -88 -166
-86 -184 0 -9 -5 -16 -13 -16 -10 0 -10 8 2 36 17 41 111 220 126 239 25 33
14 4 -29 -75z m-502 -783 c-5 -33 -32 -64 -32 -37 0 23 18 67 28 67 5 0 7 -13
4 -30z m-96 -366 c-6 -47 -30 -92 -39 -76 -9 13 -4 91 4 86 4 -2 10 5 14 16
13 40 28 21 21 -26z"/>
<path d="M4340 4143 c0 -32 -11 -267 -25 -523 -82 -1524 -134 -2603 -129
-2657 4 -38 2 -73 -4 -90 -6 -15 -21 -206 -32 -423 -11 -217 -22 -407 -23
-422 l-4 -28 114 0 113 0 0 2100 c0 1155 -2 2100 -5 2100 -3 0 -5 -26 -5 -57z"/>
<path d="M2230 3345 c-91 -7 -264 -20 -386 -29 -121 -9 -234 -21 -250 -26 -33
-10 45 -7 331 15 99 8 259 19 355 26 96 6 182 15 190 20 19 11 -30 10 -240 -6z"/>
<path d="M2045 3075 c-33 -19 -64 -36 -70 -38 -11 -4 32 -244 48 -264 8 -12
184 -123 194 -123 3 0 3 6 1 12 -3 7 3 21 12 31 10 10 34 42 54 72 l37 53 -10
75 c-6 41 -16 87 -22 103 -7 16 -11 34 -10 40 1 9 -92 50 -159 70 -8 2 -42
-12 -75 -31z m53 -17 c-3 -10 -60 -38 -78 -38 -5 1 72 50 78 50 1 0 1 -5 0
-12z m83 -3 l34 -14 -36 -1 c-24 0 -39 5 -43 15 -7 19 3 19 45 0z m-133 -81
c2 -1 -1 -5 -6 -8 -6 -3 -18 7 -27 22 l-18 27 24 -20 c13 -11 25 -21 27 -21z
m102 -5 l21 -40 -56 37 c-30 20 -55 38 -55 39 0 1 16 2 35 3 31 1 37 -3 55
-39z m54 29 c-3 -4 -11 -5 -19 -1 -21 7 -19 12 4 10 11 0 18 -5 15 -9z m10
-48 c-8 -8 -7 -36 3 -92 20 -114 11 -131 -11 -21 -15 75 -16 96 -6 108 7 8 15
15 18 15 3 0 1 -5 -4 -10z m-96 -20 c12 -12 22 -26 22 -33 0 -7 7 -50 15 -96
8 -46 14 -86 12 -87 -2 -2 -24 13 -48 34 -38 31 -44 40 -32 50 10 10 13 10 13
-1 0 -8 9 -22 20 -32 11 -10 20 -14 20 -10 0 17 -41 160 -50 178 -14 23 1 22
28 -3z m160 -94 c-5 -52 -25 -39 -37 24 -10 50 -10 64 1 77 11 14 14 10 26
-28 7 -24 11 -57 10 -73z m-229 -8 c6 -18 7 -28 2 -23 -10 12 -25 55 -18 55 3
0 10 -15 16 -32z"/>
<path d="M2372 2109 c-40 -36 -75 -45 -123 -32 l-37 10 -5 -53 c-6 -62 -28
-108 -63 -131 -17 -11 -85 -24 -192 -39 -376 -50 -478 -64 -507 -73 -26 -8
-27 -9 -7 -10 24 -1 479 63 566 80 70 13 133 11 165 -5 54 -29 120 -141 121
-205 l0 -34 23 20 c34 32 62 43 106 43 l40 0 -11 32 c-10 28 -12 29 -18 13 -6
-16 -9 -13 -19 18 -15 45 -12 125 6 153 21 33 41 38 353 79 361 48 583 83 567
90 -9 4 -86 -3 -170 -14 -148 -21 -198 -29 -478 -71 l-137 -21 -41 22 c-33 17
-47 34 -74 89 l-33 68 -32 -29z"/>
<path d="M3917 818 c-73 -15 -157 -32 -187 -39 -88 -17 -180 -43 -180 -50 0
-3 -12 -4 -26 -1 -15 3 -25 1 -22 -4 3 -5 -17 -10 -45 -11 -28 -1 -54 -8 -58
-14 -4 -7 -14 -9 -23 -6 -9 4 -16 2 -16 -3 0 -6 -14 -10 -30 -10 -17 0 -29 3
-29 8 4 21 -2 62 -8 62 -5 0 -16 -14 -25 -31 -10 -17 -22 -27 -28 -24 -5 3
-10 2 -10 -2 0 -5 -16 -7 -36 -5 -20 3 -32 7 -26 11 5 3 -10 28 -35 56 l-45
49 32 -61 c39 -74 35 -93 -18 -93 -22 0 -70 -6 -108 -14 -38 -8 -125 -25 -194
-37 -69 -12 -136 -27 -150 -32 -14 -6 -36 -11 -50 -13 -14 -1 -70 -12 -125
-24 -54 -12 -113 -24 -130 -26 -34 -4 -116 -22 -159 -35 -47 -15 -74 -11 -81
11 -8 26 -27 25 -51 -1 -18 -20 -41 -21 -84 -5 -11 5 -19 -3 -26 -22 -10 -25
-18 -29 -87 -40 -108 -19 -135 -24 -360 -71 -55 -12 -109 -21 -122 -21 -45 0
-361 -72 -408 -93 -40 -19 -47 -25 -42 -44 6 -24 -10 -32 -18 -10 -4 9 -8 9
-15 -2 -9 -12 -17 -13 -49 -3 -21 6 -186 18 -368 27 -181 8 -363 18 -402 21
l-73 6 0 -111 0 -111 2043 1 2042 1 -1075 58 c-591 32 -1280 68 -1530 81 -418
21 -451 24 -400 36 30 7 78 15 105 17 28 3 77 12 110 21 33 10 71 17 84 16 13
0 50 6 83 15 33 8 74 17 91 19 45 5 96 15 137 26 19 5 47 9 63 9 15 0 27 5 27
11 0 5 5 7 11 3 6 -3 15 0 20 7 6 9 9 10 9 2 0 -17 91 11 107 34 7 9 13 11 13
5 0 -7 7 -12 15 -12 8 0 15 4 15 10 0 5 7 7 15 4 9 -4 15 0 15 7 0 12 2 12 9
1 7 -11 10 -11 22 0 8 8 34 12 64 11 57 -2 107 5 101 15 -2 4 10 7 27 8 49 1
189 25 208 34 9 5 42 12 74 15 67 6 135 23 135 33 0 4 28 8 63 8 34 1 89 10
122 19 33 10 67 18 75 17 32 -1 160 31 154 39 -3 5 4 5 18 0 14 -5 33 -4 48 1
51 20 143 38 163 32 12 -4 17 -2 13 4 -4 6 2 8 14 5 25 -7 150 28 150 42 0 5
4 4 9 -3 9 -15 74 -7 94 12 7 6 37 12 67 14 30 2 57 6 60 10 3 4 21 8 40 9 19
1 36 6 38 11 2 6 12 7 24 5 11 -4 24 0 29 8 7 11 9 11 9 1 0 -10 5 -10 21 -1
15 8 19 8 15 0 -9 -14 -9 -14 65 8 35 11 88 22 118 25 30 4 60 11 68 18 22 18
34 45 27 63 -8 21 -59 17 -227 -17z"/>
</g>
</svg>
